<mxfile host="app.diagrams.net" modified="2024-05-17T02:36:14.464Z" agent="Mozilla/5.0 (Windows NT 10.0; Win64; x64) AppleWebKit/537.36 (KHTML, like Gecko) Chrome/124.0.0.0 Safari/537.36" version="24.4.3" etag="aK-p7iHUCt8HwclmFx07" type="github">
  <diagram name="Trang-1" id="LvEOHeGtlUtNJDIZ_XVl">
    <mxGraphModel>
      <root>
        <mxCell id="0" />
        <mxCell id="1" parent="0" />
      </root>
    </mxGraphModel>
  </diagram>
</mxfile>
